<svg xmlns="http://www.w3.org/2000/svg" id="Grupo_2" data-name="Grupo 2" width="438.71" height="438.71" viewBox="0 0 438.71 438.71">
  <path id="Caminho_4" data-name="Caminho 4" d="M374.454,64.255a219.344,219.344,0,1,0-310.2,310.2,219.344,219.344,0,1,0,310.2-310.2ZM356.821,356.821a194.354,194.354,0,0,1-274.932,0c-75.8-75.8-75.8-199.136,0-274.932a194.354,194.354,0,0,1,274.932,0C432.616,157.684,432.616,281.025,356.821,356.821Z" fill="#e04d4d"/>
  <path id="Caminho_5" data-name="Caminho 5" d="M325.915,132.595a12.426,12.426,0,0,0-17.633,0l-79.027,79.027-79.027-79.027a12.469,12.469,0,0,0-17.633,17.633l79.027,79.027-79.027,79.027a12.51,12.51,0,0,0,8.77,21.326,12.161,12.161,0,0,0,8.77-3.693l79.027-79.027,79.027,79.027a12.544,12.544,0,0,0,8.771,3.693,12.011,12.011,0,0,0,8.77-3.693,12.426,12.426,0,0,0,0-17.633l-78.842-79.027,79.027-79.027A12.426,12.426,0,0,0,325.915,132.595Z" transform="translate(-9.9 -9.9)" fill="#e04d4d"/>
</svg>